<svg xmlns="http://www.w3.org/2000/svg" xmlns:xlink="http://www.w3.org/1999/xlink" width="800" height="521.04"><rect width="800" height="521.04" rx="0" ry="0" class="a"></rect><svg height="521.04" viewBox="0 0 80 52.104" width="800" xmlns="http://www.w3.org/2000/svg" xmlns:xlink="http://www.w3.org/1999/xlink"><style>.a{fill:rgb(40,45,53)}.b{font-family:Monaco,Consolas,Menlo,'Bitstream Vera Sans Mono','Powerline Symbols',monospace}.c{fill:rgb(185,192,203);white-space:pre}.d{fill:transparent}.e{fill:rgb(111,118,131)}.g{animation-duration:0.557807s;animation-iteration-count:infinite;animation-name:f;animation-timing-function:steps(1,end)}@keyframes f{0%{transform:translateX(-0px)}0.8%{transform:translateX(-80px)}1.1%{transform:translateX(-160px)}1.1%{transform:translateX(-240px)}1.1%{transform:translateX(-320px)}1.1%{transform:translateX(-400px)}1.1%{transform:translateX(-480px)}49.9%{transform:translateX(-560px)}49.9%{transform:translateX(-640px)}50%{transform:translateX(-720px)}50%{transform:translateX(-800px)}97.3%{transform:translateX(-880px)}99.2%{transform:translateX(-960px)}99.8%{transform:translateX(-1040px)}99.9%{transform:translateX(-1120px)}99.9%{transform:translateX(-1200px)}99.9%{transform:translateX(-1280px)}100%{transform:translateX(-1360px)}100%{transform:translateX(-1440px)}100%{transform:translateX(-1520px)}100%{transform:translateX(-1600px)}100%{transform:translateX(-1680px)}}</style><g font-family="Monaco, Consolas, Menlo, &#x27;Bitstream Vera Sans Mono&#x27;, &#x27;Powerline Symbols&#x27;, monospace" font-size="1.67" class="b"><defs><symbol id="1"><text x="0" y="1.67" class="c">╔══════════════════════════════════════════════════════════════════════╗</text></symbol><symbol id="2"><text x="0" y="1.67" class="c">║</text><text x="3.006" y="1.67" class="c">SIGIL:</text><text x="10.02" y="1.67" class="c">Secret</text><text x="17.034" y="1.67" class="c">Management</text><text x="28.055999999999997" y="1.67" class="c">for</text><text x="32.064" y="1.67" class="c">AI</text><text x="35.06999999999999" y="1.67" class="c">Coding</text><text x="42.083999999999996" y="1.67" class="c">Agents</text><text x="71.142" y="1.67" class="c">║</text></symbol><symbol id="3"><text x="0" y="1.67" class="c">╚══════════════════════════════════════════════════════════════════════╝</text></symbol><symbol id="4"><text x="0" y="1.67" class="c">Step</text><text x="5.01" y="1.67" class="c">1:</text><text x="8.016" y="1.67" class="c">Initialize</text><text x="19.037999999999997" y="1.67" class="c">vault</text><text x="25.05" y="1.67" class="c">(no</text><text x="29.058" y="1.67" class="c">passphrase)</text></symbol><symbol id="5"><text x="0" y="1.67" class="c">$</text><text x="2.004" y="1.67" class="c">sigil</text><text x="8.016" y="1.67" class="c">init</text><text x="13.026" y="1.67" class="c">--no-passphrase</text></symbol><symbol id="6"><text x="0" y="1.67" class="c">Initializing</text><text x="13.026" y="1.67" class="c">vault</text><text x="19.037999999999997" y="1.67" class="c">at:</text><text x="23.045999999999996" y="1.67" class="c">/tmp/sigil-demo/.sigil</text></symbol><symbol id="7"><text x="0" y="1.67" class="c">Vault</text><text x="6.012" y="1.67" class="c">initialized</text><text x="18.035999999999998" y="1.67" class="c">successfully!</text></symbol><symbol id="8"><text x="0" y="1.67" class="c">Recipient</text><text x="10.02" y="1.67" class="c">(public</text><text x="18.035999999999998" y="1.67" class="c">key):</text><text x="24.048" y="1.67" class="c">age1m4zgeahlwmfw3jscrtwdjtzh6vh0uc3llzk09v3l49jjd6vny5as</text></symbol><symbol id="9"><text x="0" y="1.67" class="c">axhzhq</text></symbol><symbol id="10"><text x="0" y="1.67" class="c">✅</text><text x="2.004" y="1.67" class="c">Vault</text><text x="8.016" y="1.67" class="c">created</text><text x="16.032" y="1.67" class="c">with</text><text x="21.041999999999998" y="1.67" class="c">age</text><text x="25.05" y="1.67" class="c">encryption</text></symbol><symbol id="11"><text x="0" y="1.67" class="c">Step</text><text x="5.01" y="1.67" class="c">2:</text><text x="8.016" y="1.67" class="c">Add</text><text x="12.024" y="1.67" class="c">a</text><text x="14.027999999999999" y="1.67" class="c">secret</text><text x="21.041999999999998" y="1.67" class="c">(demo</text><text x="27.054" y="1.67" class="c">API</text><text x="31.061999999999998" y="1.67" class="c">key)</text></symbol><symbol id="12"><text x="0" y="1.67" class="c">$</text><text x="2.004" y="1.67" class="c">sigil</text><text x="8.016" y="1.67" class="c">add</text><text x="12.024" y="1.67" class="c">kalshi/api_key</text></symbol><symbol id="13"><text x="0" y="1.67" class="c">Secret</text><text x="7.013999999999999" y="1.67" class="c">added</text><text x="13.026" y="1.67" class="c">successfully:</text><text x="27.054" y="1.67" class="c">kalshi/api_key</text></symbol><symbol id="14"><text x="0" y="1.67" class="c">✅</text><text x="2.004" y="1.67" class="c">Secret</text><text x="9.017999999999999" y="1.67" class="c">encrypted</text><text x="19.037999999999997" y="1.67" class="c">and</text><text x="23.045999999999996" y="1.67" class="c">stored</text></symbol><symbol id="15"><text x="0" y="1.67" class="c">Step</text><text x="5.01" y="1.67" class="c">3:</text><text x="8.016" y="1.67" class="c">List</text><text x="13.026" y="1.67" class="c">secrets</text><text x="21.041999999999998" y="1.67" class="c">in</text><text x="24.048" y="1.67" class="c">vault</text></symbol><symbol id="16"><text x="0" y="1.67" class="c">$</text><text x="2.004" y="1.67" class="c">sigil</text><text x="8.016" y="1.67" class="c">list</text></symbol><symbol id="17"><text x="0" y="1.67" class="c">Total:</text><text x="7.013999999999999" y="1.67" class="c">1</text><text x="9.017999999999999" y="1.67" class="c">secret(s)</text></symbol><symbol id="18"><text x="0" y="1.67" class="c">Step</text><text x="5.01" y="1.67" class="c">4:</text><text x="8.016" y="1.67" class="c">View</text><text x="13.026" y="1.67" class="c">secret</text><text x="20.04" y="1.67" class="c">metadata</text><text x="29.058" y="1.67" class="c">(value</text><text x="36.071999999999996" y="1.67" class="c">is</text><text x="39.077999999999996" y="1.67" class="c">encrypted)</text></symbol><symbol id="19"><text x="0" y="1.67" class="c">$</text><text x="2.004" y="1.67" class="c">cat</text><text x="6.012" y="1.67" class="c">~/.sigil/vault/kalshi/api_key.age</text><text x="40.08" y="1.67" class="c">|</text><text x="42.083999999999996" y="1.67" class="c">head</text><text x="47.093999999999994" y="1.67" class="c">-1</text></symbol><symbol id="20"><text x="0" y="1.67" class="c">age-encryption.org/v1</text></symbol><symbol id="21"><text x="0" y="1.67" class="c">✅</text><text x="2.004" y="1.67" class="c">Secret</text><text x="9.017999999999999" y="1.67" class="c">value</text><text x="15.029999999999998" y="1.67" class="c">never</text><text x="21.041999999999998" y="1.67" class="c">stored</text><text x="28.055999999999997" y="1.67" class="c">in</text><text x="31.061999999999998" y="1.67" class="c">plaintext</text></symbol><symbol id="22"><text x="0" y="1.67" class="c">Step</text><text x="5.01" y="1.67" class="c">5:</text><text x="8.016" y="1.67" class="c">Use</text><text x="12.024" y="1.67" class="c">placeholders</text><text x="25.05" y="1.67" class="c">in</text><text x="28.055999999999997" y="1.67" class="c">commands</text></symbol><symbol id="23"><text x="0" y="1.67" class="c">$</text><text x="2.004" y="1.67" class="c">sigil</text><text x="8.016" y="1.67" class="c">exec</text><text x="13.026" y="1.67" class="c">&#x27;curl</text><text x="19.037999999999997" y="1.67" class="c">-H</text><text x="22.043999999999997" y="1.67" class="c">&quot;Authorization:</text><text x="38.07599999999999" y="1.67" class="c">Bearer</text><text x="45.089999999999996" y="1.67" class="c">{{secret:kalshi/api_key}}&quot;</text><text x="72.14399999999999" y="1.67" class="c">...&#x27;</text></symbol><symbol id="24"><text x="0" y="1.67" class="c">Placeholder</text><text x="12.024" y="1.67" class="c">syntax:</text><text x="20.04" y="1.67" class="c">{{secret:path}}</text></symbol><symbol id="25"><text x="2.004" y="1.67" class="c">→</text><text x="4.008" y="1.67" class="c">Resolved</text><text x="13.026" y="1.67" class="c">at</text><text x="16.032" y="1.67" class="c">execution</text><text x="26.052" y="1.67" class="c">time</text></symbol><symbol id="26"><text x="2.004" y="1.67" class="c">→</text><text x="4.008" y="1.67" class="c">Scrubbed</text><text x="13.026" y="1.67" class="c">from</text><text x="18.035999999999998" y="1.67" class="c">output</text></symbol><symbol id="27"><text x="2.004" y="1.67" class="c">→</text><text x="4.008" y="1.67" class="c">Never</text><text x="10.02" y="1.67" class="c">logged</text><text x="17.034" y="1.67" class="c">or</text><text x="20.04" y="1.67" class="c">echoed</text></symbol><symbol id="28"><text x="0" y="1.67" class="c">║</text><text x="3.006" y="1.67" class="c">✅</text><text x="5.01" y="1.67" class="c">SIGIL</text><text x="11.021999999999998" y="1.67" class="c">protects</text><text x="20.04" y="1.67" class="c">your</text><text x="25.05" y="1.67" class="c">secrets</text><text x="33.065999999999995" y="1.67" class="c">at</text><text x="36.071999999999996" y="1.67" class="c">every</text><text x="42.083999999999996" y="1.67" class="c">layer</text><text x="70.13999999999999" y="1.67" class="c">║</text></symbol><symbol id="29"><text x="0" y="1.67" class="c">🔒</text><text x="3.006" y="1.67" class="c">At</text><text x="6.012" y="1.67" class="c">rest:</text><text x="12.024" y="1.67" class="c">age-encrypted</text><text x="26.052" y="1.67" class="c">vault</text><text x="32.064" y="1.67" class="c">(~/.sigil/vault/)</text></symbol><symbol id="30"><text x="0" y="1.67" class="c">🪝</text><text x="3.006" y="1.67" class="c">In</text><text x="6.012" y="1.67" class="c">use:</text><text x="11.021999999999998" y="1.67" class="c">{{secret:path}}</text><text x="27.054" y="1.67" class="c">placeholders</text></symbol><symbol id="31"><text x="0" y="1.67" class="c">🧹</text><text x="3.006" y="1.67" class="c">In</text><text x="6.012" y="1.67" class="c">output:</text><text x="14.027999999999999" y="1.67" class="c">exact-match</text><text x="26.052" y="1.67" class="c">scrubbing</text><text x="36.071999999999996" y="1.67" class="c">(7</text><text x="39.077999999999996" y="1.67" class="c">encodings)</text></symbol><symbol id="32"><text x="0" y="1.67" class="c">🛡️</text><text x="4.008" y="1.67" class="c">On</text><text x="7.013999999999999" y="1.67" class="c">disk:</text><text x="13.026" y="1.67" class="c">append-only</text><text x="25.05" y="1.67" class="c">audit</text><text x="31.061999999999998" y="1.67" class="c">log</text></symbol><symbol id="33"><text x="0" y="1.67" class="c">Get</text><text x="4.008" y="1.67" class="c">started:</text></symbol><symbol id="a"><rect height="24" width="80" x="0" y="0" class="d"></rect></symbol><symbol id="b"><rect height="2.171" width="1.1022" class="e"></rect></symbol></defs><rect height="52.104" width="80" class="a"></rect><g class="g"><svg x="0" y="0" width="1760"><svg x="0"><use xlink:href="#a"></use><use xlink:href="#b" x="-0.0040000000000000036" y="0"></use></svg><svg x="80"><use xlink:href="#a"></use><use xlink:href="#b" x="-0.0040000000000000036" y="13.001"></use><use xlink:href="#1" y="0"></use><use xlink:href="#2" y="2.171"></use><use xlink:href="#3" y="4.342"></use><use xlink:href="#4" y="8.684"></use><use xlink:href="#5" y="10.855"></use></svg><svg x="160"><use xlink:href="#a"></use><use xlink:href="#b" x="-0.0040000000000000036" y="21.685000000000002"></use><use xlink:href="#1" y="0"></use><use xlink:href="#2" y="2.171"></use><use xlink:href="#3" y="4.342"></use><use xlink:href="#4" y="8.684"></use><use xlink:href="#5" y="10.855"></use><use xlink:href="#6" y="13.026"></use><use xlink:href="#7" y="15.197"></use><use xlink:href="#8" y="17.368"></use><use xlink:href="#9" y="19.539"></use></svg><svg x="240"><use xlink:href="#a"></use><use xlink:href="#b" x="-0.0040000000000000036" y="23.855999999999998"></use><use xlink:href="#1" y="0"></use><use xlink:href="#2" y="2.171"></use><use xlink:href="#3" y="4.342"></use><use xlink:href="#4" y="8.684"></use><use xlink:href="#5" y="10.855"></use><use xlink:href="#6" y="13.026"></use><use xlink:href="#7" y="15.197"></use><use xlink:href="#8" y="17.368"></use><use xlink:href="#9" y="19.539"></use><use xlink:href="#10" y="21.71"></use></svg><svg x="320"><use xlink:href="#a"></use><use xlink:href="#b" x="-0.0040000000000000036" y="26.027"></use><use xlink:href="#1" y="0"></use><use xlink:href="#2" y="2.171"></use><use xlink:href="#3" y="4.342"></use><use xlink:href="#4" y="8.684"></use><use xlink:href="#5" y="10.855"></use><use xlink:href="#6" y="13.026"></use><use xlink:href="#7" y="15.197"></use><use xlink:href="#8" y="17.368"></use><use xlink:href="#9" y="19.539"></use><use xlink:href="#10" y="21.71"></use></svg><svg x="400"><use xlink:href="#a"></use><use xlink:href="#b" x="-0.0040000000000000036" y="28.198000000000004"></use><use xlink:href="#1" y="0"></use><use xlink:href="#2" y="2.171"></use><use xlink:href="#3" y="4.342"></use><use xlink:href="#4" y="8.684"></use><use xlink:href="#5" y="10.855"></use><use xlink:href="#6" y="13.026"></use><use xlink:href="#7" y="15.197"></use><use xlink:href="#8" y="17.368"></use><use xlink:href="#9" y="19.539"></use><use xlink:href="#10" y="21.71"></use><use xlink:href="#11" y="26.052"></use></svg><svg x="480"><use xlink:href="#a"></use><use xlink:href="#b" x="-0.0040000000000000036" y="30.369"></use><use xlink:href="#1" y="0"></use><use xlink:href="#2" y="2.171"></use><use xlink:href="#3" y="4.342"></use><use xlink:href="#4" y="8.684"></use><use xlink:href="#5" y="10.855"></use><use xlink:href="#6" y="13.026"></use><use xlink:href="#7" y="15.197"></use><use xlink:href="#8" y="17.368"></use><use xlink:href="#9" y="19.539"></use><use xlink:href="#10" y="21.71"></use><use xlink:href="#11" y="26.052"></use><use xlink:href="#12" y="28.223000000000003"></use></svg><svg x="560"><use xlink:href="#a"></use><use xlink:href="#b" x="-0.0040000000000000036" y="32.54"></use><use xlink:href="#1" y="0"></use><use xlink:href="#2" y="2.171"></use><use xlink:href="#3" y="4.342"></use><use xlink:href="#4" y="8.684"></use><use xlink:href="#5" y="10.855"></use><use xlink:href="#6" y="13.026"></use><use xlink:href="#7" y="15.197"></use><use xlink:href="#8" y="17.368"></use><use xlink:href="#9" y="19.539"></use><use xlink:href="#10" y="21.71"></use><use xlink:href="#11" y="26.052"></use><use xlink:href="#12" y="28.223000000000003"></use><use xlink:href="#13" y="30.394"></use></svg><svg x="640"><use xlink:href="#a"></use><use xlink:href="#b" x="-0.0040000000000000036" y="34.711"></use><use xlink:href="#1" y="0"></use><use xlink:href="#2" y="2.171"></use><use xlink:href="#3" y="4.342"></use><use xlink:href="#4" y="8.684"></use><use xlink:href="#5" y="10.855"></use><use xlink:href="#6" y="13.026"></use><use xlink:href="#7" y="15.197"></use><use xlink:href="#8" y="17.368"></use><use xlink:href="#9" y="19.539"></use><use xlink:href="#10" y="21.71"></use><use xlink:href="#11" y="26.052"></use><use xlink:href="#12" y="28.223000000000003"></use><use xlink:href="#13" y="30.394"></use><use xlink:href="#14" y="32.565"></use></svg><svg x="720"><use xlink:href="#a"></use><use xlink:href="#b" x="-0.0040000000000000036" y="39.053000000000004"></use><use xlink:href="#1" y="0"></use><use xlink:href="#2" y="2.171"></use><use xlink:href="#3" y="4.342"></use><use xlink:href="#4" y="8.684"></use><use xlink:href="#5" y="10.855"></use><use xlink:href="#6" y="13.026"></use><use xlink:href="#7" y="15.197"></use><use xlink:href="#8" y="17.368"></use><use xlink:href="#9" y="19.539"></use><use xlink:href="#10" y="21.71"></use><use xlink:href="#11" y="26.052"></use><use xlink:href="#12" y="28.223000000000003"></use><use xlink:href="#13" y="30.394"></use><use xlink:href="#14" y="32.565"></use><use xlink:href="#15" y="36.907000000000004"></use></svg><svg x="800"><use xlink:href="#a"></use><use xlink:href="#b" x="-0.0040000000000000036" y="41.224"></use><use xlink:href="#1" y="0"></use><use xlink:href="#2" y="2.171"></use><use xlink:href="#3" y="4.342"></use><use xlink:href="#4" y="8.684"></use><use xlink:href="#5" y="10.855"></use><use xlink:href="#6" y="13.026"></use><use xlink:href="#7" y="15.197"></use><use xlink:href="#8" y="17.368"></use><use xlink:href="#9" y="19.539"></use><use xlink:href="#10" y="21.71"></use><use xlink:href="#11" y="26.052"></use><use xlink:href="#12" y="28.223000000000003"></use><use xlink:href="#13" y="30.394"></use><use xlink:href="#14" y="32.565"></use><use xlink:href="#15" y="36.907000000000004"></use><use xlink:href="#16" y="39.078"></use></svg><svg x="880"><use xlink:href="#a"></use><use xlink:href="#b" x="-0.0040000000000000036" y="47.736999999999995"></use><use xlink:href="#1" y="0"></use><use xlink:href="#2" y="2.171"></use><use xlink:href="#3" y="4.342"></use><use xlink:href="#4" y="8.684"></use><use xlink:href="#5" y="10.855"></use><use xlink:href="#6" y="13.026"></use><use xlink:href="#7" y="15.197"></use><use xlink:href="#8" y="17.368"></use><use xlink:href="#9" y="19.539"></use><use xlink:href="#10" y="21.71"></use><use xlink:href="#11" y="26.052"></use><use xlink:href="#12" y="28.223000000000003"></use><use xlink:href="#13" y="30.394"></use><use xlink:href="#14" y="32.565"></use><use xlink:href="#15" y="36.907000000000004"></use><use xlink:href="#16" y="39.078"></use><use xlink:href="#17" y="45.591"></use></svg><svg x="960"><use xlink:href="#a"></use><use xlink:href="#b" x="-0.0040000000000000036" y="49.908"></use><use xlink:href="#3" y="0"></use><use xlink:href="#4" y="4.342"></use><use xlink:href="#5" y="6.513"></use><use xlink:href="#6" y="8.684"></use><use xlink:href="#7" y="10.855"></use><use xlink:href="#8" y="13.026"></use><use xlink:href="#9" y="15.197"></use><use xlink:href="#10" y="17.368"></use><use xlink:href="#11" y="21.71"></use><use xlink:href="#12" y="23.880999999999997"></use><use xlink:href="#13" y="26.052"></use><use xlink:href="#14" y="28.223000000000003"></use><use xlink:href="#15" y="32.565"></use><use xlink:href="#16" y="34.736"></use><use xlink:href="#17" y="41.248999999999995"></use><use xlink:href="#18" y="45.591"></use><use xlink:href="#19" y="47.76199999999999"></use></svg><svg x="1040"><use xlink:href="#a"></use><use xlink:href="#b" x="-0.0040000000000000036" y="49.908"></use><use xlink:href="#4" y="2.171"></use><use xlink:href="#5" y="4.342"></use><use xlink:href="#6" y="6.513"></use><use xlink:href="#7" y="8.684"></use><use xlink:href="#8" y="10.855"></use><use xlink:href="#9" y="13.026"></use><use xlink:href="#10" y="15.197"></use><use xlink:href="#11" y="19.539"></use><use xlink:href="#12" y="21.71"></use><use xlink:href="#13" y="23.880999999999997"></use><use xlink:href="#14" y="26.052"></use><use xlink:href="#15" y="30.394"></use><use xlink:href="#16" y="32.565"></use><use xlink:href="#17" y="39.078"></use><use xlink:href="#18" y="43.42"></use><use xlink:href="#19" y="45.591"></use><use xlink:href="#20" y="47.76199999999999"></use></svg><svg x="1120"><use xlink:href="#a"></use><use xlink:href="#b" x="-0.0040000000000000036" y="49.908"></use><use xlink:href="#6" y="0"></use><use xlink:href="#7" y="2.171"></use><use xlink:href="#8" y="4.342"></use><use xlink:href="#9" y="6.513"></use><use xlink:href="#10" y="8.684"></use><use xlink:href="#11" y="13.026"></use><use xlink:href="#12" y="15.197"></use><use xlink:href="#13" y="17.368"></use><use xlink:href="#14" y="19.539"></use><use xlink:href="#15" y="23.880999999999997"></use><use xlink:href="#16" y="26.052"></use><use xlink:href="#17" y="32.565"></use><use xlink:href="#18" y="36.907000000000004"></use><use xlink:href="#19" y="39.078"></use><use xlink:href="#20" y="41.248999999999995"></use><use xlink:href="#21" y="43.42"></use><use xlink:href="#22" y="47.76199999999999"></use></svg><svg x="1200"><use xlink:href="#a"></use><use xlink:href="#b" x="-0.0040000000000000036" y="49.908"></use><use xlink:href="#8" y="0"></use><use xlink:href="#9" y="2.171"></use><use xlink:href="#10" y="4.342"></use><use xlink:href="#11" y="8.684"></use><use xlink:href="#12" y="10.855"></use><use xlink:href="#13" y="13.026"></use><use xlink:href="#14" y="15.197"></use><use xlink:href="#15" y="19.539"></use><use xlink:href="#16" y="21.71"></use><use xlink:href="#17" y="28.223000000000003"></use><use xlink:href="#18" y="32.565"></use><use xlink:href="#19" y="34.736"></use><use xlink:href="#20" y="36.907000000000004"></use><use xlink:href="#21" y="39.078"></use><use xlink:href="#22" y="43.42"></use><use xlink:href="#23" y="45.591"></use></svg><svg x="1280"><use xlink:href="#a"></use><use xlink:href="#b" x="-0.0040000000000000036" y="49.908"></use><use xlink:href="#12" y="0"></use><use xlink:href="#13" y="2.171"></use><use xlink:href="#14" y="4.342"></use><use xlink:href="#15" y="8.684"></use><use xlink:href="#16" y="10.855"></use><use xlink:href="#17" y="17.368"></use><use xlink:href="#18" y="21.71"></use><use xlink:href="#19" y="23.880999999999997"></use><use xlink:href="#20" y="26.052"></use><use xlink:href="#21" y="28.223000000000003"></use><use xlink:href="#22" y="32.565"></use><use xlink:href="#23" y="34.736"></use><use xlink:href="#24" y="39.078"></use><use xlink:href="#25" y="41.248999999999995"></use><use xlink:href="#26" y="43.42"></use><use xlink:href="#27" y="45.591"></use></svg><svg x="1360"><use xlink:href="#a"></use><use xlink:href="#b" x="-0.0040000000000000036" y="49.908"></use><use xlink:href="#14" y="0"></use><use xlink:href="#15" y="4.342"></use><use xlink:href="#16" y="6.513"></use><use xlink:href="#17" y="13.026"></use><use xlink:href="#18" y="17.368"></use><use xlink:href="#19" y="19.539"></use><use xlink:href="#20" y="21.71"></use><use xlink:href="#21" y="23.880999999999997"></use><use xlink:href="#22" y="28.223000000000003"></use><use xlink:href="#23" y="30.394"></use><use xlink:href="#24" y="34.736"></use><use xlink:href="#25" y="36.907000000000004"></use><use xlink:href="#26" y="39.078"></use><use xlink:href="#27" y="41.248999999999995"></use><use xlink:href="#1" y="45.591"></use><use xlink:href="#28" y="47.76199999999999"></use></svg><svg x="1440"><use xlink:href="#a"></use><use xlink:href="#b" x="-0.0040000000000000036" y="49.908"></use><use xlink:href="#17" y="4.342"></use><use xlink:href="#18" y="8.684"></use><use xlink:href="#19" y="10.855"></use><use xlink:href="#20" y="13.026"></use><use xlink:href="#21" y="15.197"></use><use xlink:href="#22" y="19.539"></use><use xlink:href="#23" y="21.71"></use><use xlink:href="#24" y="26.052"></use><use xlink:href="#25" y="28.223000000000003"></use><use xlink:href="#26" y="30.394"></use><use xlink:href="#27" y="32.565"></use><use xlink:href="#1" y="36.907000000000004"></use><use xlink:href="#28" y="39.078"></use><use xlink:href="#3" y="41.248999999999995"></use><use xlink:href="#29" y="45.591"></use><use xlink:href="#30" y="47.76199999999999"></use></svg><svg x="1520"><use xlink:href="#a"></use><use xlink:href="#b" x="-0.0040000000000000036" y="49.908"></use><use xlink:href="#18" y="2.171"></use><use xlink:href="#19" y="4.342"></use><use xlink:href="#20" y="6.513"></use><use xlink:href="#21" y="8.684"></use><use xlink:href="#22" y="13.026"></use><use xlink:href="#23" y="15.197"></use><use xlink:href="#24" y="19.539"></use><use xlink:href="#25" y="21.71"></use><use xlink:href="#26" y="23.880999999999997"></use><use xlink:href="#27" y="26.052"></use><use xlink:href="#1" y="30.394"></use><use xlink:href="#28" y="32.565"></use><use xlink:href="#3" y="34.736"></use><use xlink:href="#29" y="39.078"></use><use xlink:href="#30" y="41.248999999999995"></use><use xlink:href="#31" y="43.42"></use><use xlink:href="#32" y="45.591"></use></svg><svg x="1600"><use xlink:href="#a"></use><use xlink:href="#b" x="-0.0040000000000000036" y="49.908"></use><use xlink:href="#18" y="0"></use><use xlink:href="#19" y="2.171"></use><use xlink:href="#20" y="4.342"></use><use xlink:href="#21" y="6.513"></use><use xlink:href="#22" y="10.855"></use><use xlink:href="#23" y="13.026"></use><use xlink:href="#24" y="17.368"></use><use xlink:href="#25" y="19.539"></use><use xlink:href="#26" y="21.71"></use><use xlink:href="#27" y="23.880999999999997"></use><use xlink:href="#1" y="28.223000000000003"></use><use xlink:href="#28" y="30.394"></use><use xlink:href="#3" y="32.565"></use><use xlink:href="#29" y="36.907000000000004"></use><use xlink:href="#30" y="39.078"></use><use xlink:href="#31" y="41.248999999999995"></use><use xlink:href="#32" y="43.42"></use><use xlink:href="#33" y="47.76199999999999"></use></svg><svg x="1680"><use xlink:href="#a"></use><use xlink:href="#b" x="-0.0040000000000000036" y="49.908"></use><use xlink:href="#21" y="0"></use><use xlink:href="#22" y="4.342"></use><use xlink:href="#23" y="6.513"></use><use xlink:href="#24" y="10.855"></use><use xlink:href="#25" y="13.026"></use><use xlink:href="#26" y="15.197"></use><use xlink:href="#27" y="17.368"></use><use xlink:href="#1" y="21.71"></use><use xlink:href="#28" y="23.880999999999997"></use><use xlink:href="#3" y="26.052"></use><use xlink:href="#29" y="30.394"></use><use xlink:href="#30" y="32.565"></use><use xlink:href="#31" y="34.736"></use><use xlink:href="#32" y="36.907000000000004"></use><use xlink:href="#33" y="41.248999999999995"></use><text x="2.004" y="45.09" class="c">•</text><text x="4.008" y="45.09" class="c">sigil</text><text x="10.02" y="45.09" class="c">setup</text><text x="16.032" y="45.09" class="c">claude-code</text><text x="30.059999999999995" y="45.09" class="c">#</text><text x="32.064" y="45.09" class="c">Install</text><text x="40.08" y="45.09" class="c">agent</text><text x="46.09199999999999" y="45.09" class="c">hooks</text><text x="2.004" y="47.261" class="c">•</text><text x="4.008" y="47.261" class="c">sigil</text><text x="10.02" y="47.261" class="c">help</text><text x="31.061999999999998" y="47.261" class="c">#</text><text x="33.065999999999995" y="47.261" class="c">View</text><text x="38.07599999999999" y="47.261" class="c">all</text><text x="42.083999999999996" y="47.261" class="c">commands</text><text x="2.004" y="49.431999999999995" class="c">•</text><text x="4.008" y="49.431999999999995" class="c">https://github.com/jedarden/sigil</text></svg></svg></g></g></svg></svg>